<svg xmlns="http://www.w3.org/2000/svg" viewBox="0 0 240 240" width="240" height="240" fill="none" role="img" aria-label="Agent Garrett">
  <defs>
    <linearGradient id="neon" x1="0" y1="0" x2="1" y2="1">
      <stop offset="0" stop-color="#c026ff"/>
      <stop offset="0.5" stop-color="#ff2bd6"/>
      <stop offset="1" stop-color="#7a1fff"/>
    </linearGradient>
    <radialGradient id="eye" cx="0.5" cy="0.5" r="0.5">
      <stop offset="0" stop-color="#aeffff"/>
      <stop offset="0.55" stop-color="#00d4ff"/>
      <stop offset="1" stop-color="#0077aa"/>
    </radialGradient>
    <filter id="glow" x="-40%" y="-40%" width="180%" height="180%">
      <feGaussianBlur stdDeviation="2.4" result="b"/>
      <feMerge><feMergeNode in="b"/><feMergeNode in="SourceGraphic"/></feMerge>
    </filter>
  </defs>
  <!-- silhouette (near-black, reads on dark bg) -->
  <g fill="#05060a">
    <path d="M38 232 C42 176 70 150 96 145 L150 150 C176 159 197 186 202 232 Z"/>
    <path d="M96 145 L150 150 C141 176 120 181 110 179 C100 177 97 161 96 145 Z" fill="#070810"/>
    <path d="M104 150 C92 150 86 130 88 112 L152 112 C152 138 134 150 116 150 Z"/>
    <path d="M86 96 C90 70 110 55 132 57 C151 59 161 78 159 100 L152 112 L88 112 Z"/>
    <path d="M54 110 C70 91 182 85 198 112 C191 123 150 127 120 127 C92 127 62 122 54 110 Z"/>
  </g>
  <!-- neon rim light -->
  <g stroke="url(#neon)" stroke-width="3.2" stroke-linecap="round" stroke-linejoin="round" filter="url(#glow)">
    <path d="M86 96 C90 70 110 55 132 57 C151 59 161 78 159 100"/>
    <path d="M54 110 C70 91 182 85 198 112"/>
    <path d="M198 112 C191 123 150 127 120 127 C92 127 62 122 54 110"/>
    <path d="M38 232 C42 176 70 150 96 145"/>
    <path d="M150 150 C176 159 197 186 202 232"/>
    <path d="M96 145 C97 161 101 177 110 179"/>
  </g>
  <!-- glowing eye -->
  <ellipse cx="121" cy="127" rx="9" ry="5.5" fill="url(#eye)" filter="url(#glow)" transform="rotate(-12 121 127)"/>
</svg>
